<svg width="12" height="14" viewBox="0 0 12 14" fill="none" xmlns="http://www.w3.org/2000/svg">
<path d="M9.08765 4.92711H6.2572V6.3491C6.2572 7.3572 5.65573 8.17738 4.91646 8.17738C4.1772 8.17738 3.57573 7.3572 3.57573 6.3491V3.26134L2.3672 4.25166C2.00781 4.54368 1.78808 5.07439 1.78808 5.64318V6.84426L0.298367 8.01741C0.0134597 8.24086 -0.0852336 8.73856 0.0804966 9.12707L1.57021 12.6465C1.73407 13.035 2.09905 13.1671 2.38396 12.9436L4.30941 11.4277H6.85309C7.51042 11.4277 8.04485 10.6989 8.04485 9.80252H8.3428C8.67239 9.80252 8.93868 9.4394 8.93868 8.98995V7.36481H9.08765C9.33531 7.36481 9.53456 7.09311 9.53456 6.75539V5.53653C9.53456 5.19881 9.33531 4.92711 9.08765 4.92711ZM11.838 3.97742L10.3483 0.457981C10.1844 0.0694717 9.81947 -0.0625707 9.53456 0.160886L7.60911 1.67683H5.70601C5.48255 1.67683 5.26468 1.76317 5.07475 1.92314L4.45093 2.45385C4.27589 2.60113 4.17161 2.86268 4.17161 3.142V6.3491C4.17161 6.91028 4.50493 7.36481 4.91646 7.36481C5.328 7.36481 5.66132 6.91028 5.66132 6.3491V4.11454H9.08765C9.66305 4.11454 10.1304 4.7519 10.1304 5.53653V6.26023L11.6202 5.08708C11.9051 4.86109 12.0019 4.36593 11.838 3.97742Z" fill="white"/>
</svg>
